HIERARCHY
ROOT Hips
{
	OFFSET	0.00	0.00	0.00
	CHANNELS 6 Xposition Yposition Zposition Zrotation Xrotation Yrotation
	JOINT LeftUpLeg
	{
		OFFSET	 0.126116	-0.014019	-0.065224
		CHANNELS 3 Zrotation Xrotation Yrotation
		JOINT LeftLeg
		{
			OFFSET	 0.000000	 0.000000	 0.569914
			CHANNELS 3 Zrotation Xrotation Yrotation
			JOINT LeftFoot
			{
				OFFSET	 0.000000	 0.000000	 0.544423
				CHANNELS 3 Zrotation Xrotation Yrotation
				JOINT LeftToeBase
				{
					OFFSET	 0.000000	 0.000000	 0.207117
					CHANNELS 3 Zrotation Xrotation Yrotation
					End Site
					{
						OFFSET	 0.000000	 0.000000	 0.207117
					}
				}
			}
		}
	}
	JOINT RightUpLeg
	{
		OFFSET	-0.124023	-0.008373	-0.065224
		CHANNELS 3 Zrotation Xrotation Yrotation
		JOINT RightLeg
		{
			OFFSET	 0.000000	 0.000000	 0.570047
			CHANNELS 3 Zrotation Xrotation Yrotation
			JOINT RightFoot
			{
				OFFSET	 0.000000	 0.000000	 0.544354
				CHANNELS 3 Zrotation Xrotation Yrotation
				JOINT RightToeBase
				{
					OFFSET	 0.000000	 0.000000	 0.207540
					CHANNELS 3 Zrotation Xrotation Yrotation
					End Site
					{
						OFFSET	 0.000000	 0.000000	 0.207540
					}
				}
			}
		}
	}
	JOINT Spine
	{
		OFFSET	 0.000184	-0.007763	 0.117403
		CHANNELS 3 Zrotation Xrotation Yrotation
		JOINT Spine1
		{
			OFFSET	 0.000000	 0.000000	 0.137269
			CHANNELS 3 Zrotation Xrotation Yrotation
			JOINT Spine2
			{
				OFFSET	 0.000000	 0.000000	 0.156879
				CHANNELS 3 Zrotation Xrotation Yrotation
				JOINT LeftShoulder
				{
					OFFSET	 0.080501	-0.002496	 0.160144
					CHANNELS 3 Zrotation Xrotation Yrotation
					JOINT LeftArm
					{
						OFFSET	 0.000000	 0.000000	 0.164363
						CHANNELS 3 Zrotation Xrotation Yrotation
						JOINT LeftForeArm
						{
							OFFSET	 0.000000	 0.000000	 0.364576
							CHANNELS 3 Zrotation Xrotation Yrotation
							JOINT LeftHand
							{
								OFFSET	 0.000000	 0.000000	 0.360812
								CHANNELS 3 Zrotation Xrotation Yrotation
								JOINT LeftHandIndex1
								{
									OFFSET	 0.000000	 0.000000	 0.086006
									CHANNELS 3 Zrotation Xrotation Yrotation
									JOINT LeftHandIndex2
									{
										OFFSET	 0.000000	 0.000000	 0.047236
										CHANNELS 3 Zrotation Xrotation Yrotation
										JOINT LeftHandIndex3
										{
											OFFSET	-0.004284	-0.000551	 0.038166
											CHANNELS 3 Zrotation Xrotation Yrotation
											End Site
											{
												OFFSET	-0.004284	-0.000551	 0.038166
											}
										}
									}
								}
							}
						}
					}
				}
				JOINT Neck
				{
					OFFSET	 0.000000	 0.000000	 0.176489
					CHANNELS 3 Zrotation Xrotation Yrotation
					JOINT Head
					{
						OFFSET	 0.000000	-0.001747	 0.077940
						CHANNELS 3 Zrotation Xrotation Yrotation
						End Site
						{
							OFFSET	 0.000000	-0.001747	 0.077940
						}
					}
				}
				JOINT RightShoulder
				{
					OFFSET	-0.080363	 0.000306	 0.159706
					CHANNELS 3 Zrotation Xrotation Yrotation
					JOINT RightArm
					{
						OFFSET	 0.000000	 0.000000	 0.164196
						CHANNELS 3 Zrotation Xrotation Yrotation
						JOINT RightForeArm
						{
							OFFSET	 0.000000	 0.000000	 0.365611
							CHANNELS 3 Zrotation Xrotation Yrotation
							JOINT RightHand
							{
								OFFSET	 0.000000	 0.000000	 0.360648
								CHANNELS 3 Zrotation Xrotation Yrotation
								JOINT RightHandIndex1
								{
									OFFSET	 0.000000	 0.000000	 0.069977
									CHANNELS 3 Zrotation Xrotation Yrotation
									JOINT RightHandIndex2
									{
										OFFSET	 0.000000	 0.000000	 0.052305
										CHANNELS 3 Zrotation Xrotation Yrotation
										JOINT RightHandIndex3
										{
											OFFSET	 0.009002	-0.000782	 0.042196
											CHANNELS 3 Zrotation Xrotation Yrotation
											End Site
											{
												OFFSET	 0.009002	-0.000782	 0.042196
											}
										}
									}
								}
							}
						}
					}
				}
			}
		}
	}
}
MOTION
Frames:    13
Frame Time: 0.03333334
 0.013799	 0.034948	 1.219495	-179.579700	 0.641450	-0.381715	 1.449758	-10.780530	-179.855100	-1.549204	-39.226910	-6.747689	-154.270500	 85.589400	 141.061700	-2.145729	 49.596410	-0.570994	-11.448190	-11.308960	-176.170200	 6.707161	-40.106200	 9.657939	-179.023000	 85.142800	-172.031500	 2.369061	 31.410500	 0.066802	-12.422710	 5.541367	 0.341278	 3.610576	 9.003881	 1.629738	-8.310205	-22.752420	-2.557623	-91.229250	 83.958270	 178.242600	 49.015900	 68.224260	-61.687410	-0.601982	 0.705966	-5.132804	 24.733550	 3.214479	-7.945773	-11.865570	 7.462520	-24.843480	-5.213937	-0.202400	 3.566957	-1.378229	 35.397820	-2.634230	-1.407328	 6.788800	 5.258959	-5.773985	-20.087970	-7.751147	 87.726780	 87.418820	-176.798800	-68.510190	 60.022000	 65.955330	 1.015217	 0.678251	 5.144441	-40.426170	 4.879474	 18.311940	-0.127928	 26.449200	-62.088360	 5.070519	-0.690904	-9.399550	-2.350882	 35.473990	 5.254307
 0.014301	 0.032400	 1.220789	-179.011400	 0.733827	-0.399757	 0.942415	-11.058980	-179.885600	-1.268661	-39.186150	-6.561010	-151.621700	 85.954120	 138.240000	-2.100456	 51.578900	-0.644655	-12.071950	-11.486630	-176.287700	 6.708838	-40.185080	 9.674542	-178.891800	 85.291230	-172.164800	 2.373149	 30.699750	 0.050812	-15.220420	 5.656737	 0.407099	 3.512831	 9.613249	 1.470465	-8.244081	-23.457830	-2.510073	-91.229220	 83.958310	 178.242500	 49.108460	 67.617180	-60.092130	-2.691727	 1.052164	-5.957039	 24.573100	 3.467221	-8.065495	-12.299530	 6.738562	-25.720040	-5.213937	-0.202400	 3.566957	-1.378229	 35.397820	-2.634230	-1.443503	 6.590754	 5.063266	-5.857464	-20.728670	-7.692960	 87.726940	 87.418820	-176.798900	-70.749050	 60.190060	 68.092310	 3.233322	 1.026388	 5.968106	-39.931210	 5.247869	 18.440650	-0.135856	 26.485190	-62.339580	 5.070519	-0.690904	-9.399550	-2.350882	 35.473990	 5.254307
 0.014306	 0.031567	 1.221054	-178.872100	 0.783742	-0.481289	 0.810601	-11.151970	-179.808300	-1.194720	-39.149180	-6.508270	-150.839800	 86.054340	 137.413600	-2.094254	 51.831570	-0.654451	-12.172000	-11.603860	-176.254300	 6.685719	-40.257270	 9.673172	-178.869600	 85.299140	-172.160100	 2.374275	 30.495260	 0.046248	-15.836460	 5.678538	 0.478610	 3.475576	 9.834749	 1.467640	-8.253714	-23.670600	-2.515831	-91.229320	 83.958310	 178.242600	 48.536710	 67.264480	-59.074720	-3.240220	 1.142386	-6.152024	 24.497010	 3.534660	-8.090697	-12.352510	 6.644900	-25.820690	-5.213937	-0.202400	 3.566957	-1.378229	 35.397820	-2.634230	-1.470649	 6.568231	 5.063222	-5.910656	-20.890770	-7.768895	 87.726860	 87.418820	-176.798800	-71.707170	 60.274410	 69.248420	 3.725938	 1.117271	 6.159007	-39.867100	 5.318008	 18.466020	-0.203018	 26.390170	-62.361120	 5.070519	-0.690904	-9.399550	-2.350882	 35.473990	 5.254307
 0.014331	 0.030741	 1.221295	-178.738900	 0.831846	-0.559638	 0.684031	-11.244070	-179.736000	-1.124412	-39.115670	-6.458431	-150.025300	 86.149190	 136.557300	-2.088213	 52.073200	-0.663924	-12.268550	-11.717820	-176.225800	 6.663785	-40.327250	 9.672090	-178.811700	 85.306600	-172.191400	 2.375331	 30.299680	 0.041890	-16.409880	 5.700356	 0.547431	 3.439987	 10.061010	 1.467865	-8.263967	-23.880430	-2.523829	-91.229260	 83.958340	 178.242600	 47.922370	 66.891430	-58.032990	-3.764626	 1.232307	-6.334039	 24.423940	 3.599431	-8.114388	-12.403320	 6.555452	-25.916950	-5.213937	-0.202400	 3.566957	-1.378229	 35.397820	-2.634230	-1.496601	 6.546712	 5.063162	-5.961800	-21.045690	-7.842052	 87.726450	 87.418960	-176.798400	-72.693500	 60.355710	 70.466050	 4.196711	 1.206345	 6.343002	-39.805410	 5.385433	 18.490070	-0.267226	 26.299360	-62.381790	 5.070519	-0.690904	-9.399550	-2.350882	 35.473990	 5.254307
 0.014401	 0.029900	 1.221526	-178.599900	 0.885866	-0.628986	 0.555965	-11.347710	-179.677000	-1.046972	-39.089920	-6.405128	-149.102000	 86.239850	 135.587800	-2.080890	 52.361200	-0.675328	-12.372440	-11.832670	-176.211500	 6.645316	-40.391100	 9.672110	-178.653600	 85.306060	-172.322800	 2.376449	 30.088430	 0.037204	-16.966610	 5.723137	 0.609734	 3.404105	 10.283500	 1.471881	-8.277040	-24.094530	-2.538155	-91.229350	 83.958310	 178.242700	 47.323200	 66.504960	-57.004780	-4.287991	 1.323607	-6.517417	 24.350170	 3.665771	-8.138680	-12.438330	 6.500823	-25.988390	-5.213937	-0.202400	 3.566957	-1.378229	 35.397820	-2.634230	-1.523887	 6.535010	 5.059823	-6.012555	-21.206180	-7.910296	 87.726780	 87.418960	-176.798700	-73.689010	 60.437050	 71.706990	 4.663528	 1.297086	 6.526867	-39.741340	 5.451328	 18.511160	-0.335233	 26.202000	-62.397900	 5.070519	-0.690904	-9.399550	-2.350882	 35.473990	 5.254307
 0.014791	 0.028935	 1.221787	-178.377000	 1.015090	-0.585941	 0.405884	-11.586860	-179.764700	-0.872717	-39.146030	-6.300743	-147.402900	 86.302280	 133.782000	-2.057413	 53.248740	-0.711347	-12.570070	-11.964190	-176.352700	 6.670464	-40.386580	 9.688161	-177.493100	 85.205850	-173.461400	 2.378610	 29.667820	 0.027912	-17.544850	 5.749010	 0.590790	 3.355083	 10.397450	 1.484120	-8.316339	-24.344290	-2.607981	-91.229160	 83.958270	 178.242500	 46.919300	 66.135060	-56.127530	-4.838992	 1.416693	-6.693376	 24.265310	 3.751787	-8.177142	-12.276520	 6.879081	-25.752340	-5.213937	-0.202400	 3.566957	-1.378229	 35.397820	-2.634230	-1.569554	 6.646194	 5.015659	-6.060228	-21.447790	-7.915772	 87.726820	 87.419040	-176.798800	-74.596620	 60.576340	 72.802190	 5.113229	 1.389427	 6.702880	-39.648170	 5.495832	 18.497360	-0.455461	 26.015920	-62.356750	 5.070519	-0.690904	-9.399550	-2.350882	 35.473990	 5.254307
 0.015209	 0.027991	 1.222045	-178.151800	 1.145678	-0.543596	 0.253666	-11.824630	-179.853700	-0.696056	-39.200640	-6.194413	-145.648200	 86.360890	 131.919100	-2.032204	 54.145960	-0.749167	-12.769350	-12.093100	-176.493600	 6.695335	-40.379440	 9.703503	-176.393400	 85.101950	-174.539800	 2.380707	 29.242610	 0.018581	-18.109480	 5.774989	 0.571818	 3.307700	 10.503330	 1.501529	-8.357136	-24.592040	-2.680737	-91.229200	 83.958270	 178.242500	 46.621580	 65.787700	-55.364650	-5.395040	 1.512912	-6.871841	 24.179250	 3.839409	-8.215435	-12.114170	 7.262510	-25.514140	-5.213937	-0.202400	 3.566957	-1.378229	 35.397820	-2.634230	-1.615619	 6.758672	 4.971153	-6.108382	-21.692050	-7.921938	 87.726720	 87.418820	-176.798700	-75.799520	 60.753220	 73.571240	 5.539926	 1.221208	 8.020237	-39.553700	 5.541145	 18.483250	-0.576673	 25.827720	-62.315670	 5.070519	-0.690904	-9.399550	-2.350882	 35.473990	 5.254307
 0.015660	 0.027087	 1.222303	-177.922600	 1.278337	-0.501901	 0.098280	-12.060560	-179.944000	-0.515685	-39.253890	-6.085320	-143.848800	 86.414880	 130.009100	-2.004906	 55.059200	-0.789233	-12.971200	-12.218410	-176.633000	 6.719860	-40.368680	 9.717920	-175.366600	 84.993290	-175.546100	 2.382756	 28.809790	 0.009132	-18.661890	 5.800896	 0.552689	 3.262284	 10.592790	 1.525613	-8.399652	-24.835290	-2.757031	-91.229270	 83.958340	 178.242600	 46.485340	 65.485860	-54.777610	-5.959802	 1.613548	-7.050734	 24.091310	 3.929279	-8.253799	-11.950190	 7.653903	-25.272110	-5.213937	-0.202400	 3.566957	-1.378229	 35.397820	-2.634230	-1.662457	 6.873247	 4.926062	-6.157489	-21.940690	-7.928906	 87.726970	 87.418890	-176.798900	-77.051000	 60.927630	 74.066280	 5.965054	 0.958151	 9.864882	-39.457190	 5.587398	 18.468820	-0.699697	 25.636050	-62.274380	 5.070519	-0.690904	-9.399550	-2.350882	 35.473990	 5.254307
 0.016604	 0.025482	 1.222814	-177.471700	 1.549320	-0.438068	-0.214958	-12.512150	 179.896600	-0.164045	-39.343420	-5.870333	-140.316300	 86.516310	 126.259300	-1.948585	 56.777680	-0.869419	-13.380950	-12.467430	-176.876600	 6.771188	-40.345250	 9.747881	-173.619000	 84.781020	-177.261600	 2.386269	 28.017760	-0.008012	-19.686560	 5.847699	 0.528399	 3.182100	 10.683590	 1.595759	-8.482921	-25.273200	-2.908906	-91.229210	 83.958270	 178.242500	 46.782390	 65.124180	-54.273460	-7.038571	 1.821588	-7.402482	 23.936990	 4.093662	-8.319458	-11.646380	 8.404160	-24.830680	-5.213937	-0.202400	 3.566957	-1.378229	 35.397820	-2.634230	-1.754745	 7.096345	 4.850726	-6.259642	-22.411360	-7.972936	 87.726780	 87.418960	-176.798700	-76.998150	 60.939700	 75.479230	 6.966379	 1.791159	 7.415056	-39.239010	 5.686610	 18.433010	-0.933310	 25.276360	-62.224770	 5.070519	-0.690904	-9.399550	-2.350882	 35.473990	 5.254307
 0.018004	 0.022377	 1.223655	-176.740900	 2.282552	-0.717100	-0.907165	-13.468250	-179.928600	 0.281571	-39.310050	-5.579694	-133.449100	 86.959660	 119.102200	-1.919930	 57.577720	-0.909109	-14.477490	-13.439090	-176.875700	 6.998055	-40.523790	 9.936230	-170.638400	 84.653720	 179.720400	 2.385248	 28.253820	-0.002913	-21.299060	 5.879373	 0.841978	 3.041268	 10.413830	 1.830080	-8.555896	-25.795740	-3.071032	-91.229200	 83.958370	 178.242500	 47.602530	 65.346920	-54.108540	-8.043550	 2.252481	-8.085219	 24.189910	 3.994221	-8.220106	-11.540060	 9.044770	-24.973670	-5.213937	-0.202400	 3.566957	-1.378229	 35.397820	-2.634230	-1.916286	 7.396354	 5.060511	-6.566497	-22.702240	-8.778261	 87.727040	 87.418890	-176.799000	-77.122990	 61.128120	 75.232160	 9.421837	 2.235835	 8.096135	-38.175330	 6.038752	 18.187060	-1.123579	 25.144150	-62.922950	 5.070519	-0.690904	-9.399550	-2.350882	 35.473990	 5.254307
 0.020262	 0.020673	 1.224172	-176.272300	 2.557917	-0.632772	-1.213543	-13.891520	 179.799600	 0.462704	-39.402510	-5.474056	-126.753400	 87.200740	 112.312200	-1.865917	 58.970230	-0.982226	-14.943910	-13.617550	-177.185100	 7.165508	-40.466320	 10.037960	-169.345500	 84.129280	 178.402100	 2.386029	 28.072990	-0.006820	-22.423450	 6.000610	 0.875094	 3.094898	 10.458530	 1.879681	-8.575098	-26.177900	-3.111255	-91.229170	 83.958310	 178.242500	 49.349960	 65.857270	-55.029260	-9.633570	 2.772988	-8.806871	 23.990650	 4.020935	-8.138514	-11.413320	 9.452485	-24.860790	-5.213937	-0.202400	 3.566957	-1.378229	 35.397820	-2.634230	-2.115839	 8.142472	 5.690500	-6.996588	-23.415720	-10.034660	 87.727040	 87.418890	-176.799000	-76.476050	 60.780510	 74.092490	 11.435940	 2.760262	 8.820500	-38.080200	 6.327187	 18.255190	-1.091825	 25.154120	-62.752190	 5.070519	-0.690904	-9.399550	-2.350882	 35.473990	 5.254307
 0.021352	 0.018637	 1.224622	-176.155000	 3.322669	-0.637013	-1.145314	-14.788520	 179.725000	 0.367009	-39.415750	-5.537173	-122.164200	 87.332810	 107.823100	-1.862519	 59.053370	-0.986763	-15.183400	-14.482230	-177.402600	 7.323497	-40.489670	 10.149570	-167.087800	 84.114040	 176.102800	 2.380821	 29.219510	 0.018070	-22.778580	 5.367505	 0.868849	 3.163667	 10.463520	 2.179277	-8.772899	-26.046940	-3.369492	-91.229300	 83.958310	 178.242600	 50.622480	 66.863270	-54.843950	-11.382950	 3.275306	-9.431062	 23.039630	 3.948842	-7.877194	-11.344490	 9.521229	-24.673880	-5.213937	-0.202400	 3.566957	-1.378229	 35.397820	-2.634230	-2.208682	 7.990047	 5.889690	-7.127010	-23.083310	-10.513540	 87.727130	 87.418960	-176.799100	-76.106420	 60.372680	 73.600710	 12.787300	 3.260142	 9.436417	-38.459920	 6.481773	 18.434430	-1.655981	 24.137620	-62.019230	 5.070519	-0.690904	-9.399550	-2.350882	 35.473990	 5.254307
 0.021799	 0.018421	 1.224829	-176.134700	 3.428517	-0.597223	-1.218486	-14.837440	 179.676300	 0.475917	-39.350910	-5.459595	-121.963200	 87.389400	 107.531100	-1.810741	 60.258400	-1.054959	-15.226370	-14.537680	-177.415500	 7.338897	-40.412110	 10.144210	-167.181900	 83.995180	 176.186200	 2.383715	 28.599050	 0.004553	-22.703300	 5.545003	 0.847625	 3.187276	 10.071960	 2.271676	-8.836379	-25.944630	-3.470290	-91.229230	 83.958310	 178.242600	 52.035130	 67.622940	-54.857300	-13.309260	 3.646309	-9.850395	 21.783100	 4.037236	-7.715205	-11.342760	 9.545592	-24.687590	-5.213937	-0.202400	 3.566957	-1.378229	 35.397820	-2.634230	-2.245476	 7.670316	 5.818810	-7.105016	-22.605450	-10.469710	 87.726590	 87.418960	-176.798600	-76.086850	 59.972820	 73.363380	 13.814170	 3.623765	 9.849235	-38.621860	 6.652061	 18.573020	-1.707475	 24.037030	-61.928200	 5.070519	-0.690904	-9.399550	-2.350882	 35.473990	 5.254307
